<svg width="32" height="32" viewBox="0 0 32 32" fill="none" xmlns="http://www.w3.org/2000/svg">
<g clip-path="url(#clip0_1028_9)">
<path d="M13.1108 17.4445H4.44398C4.06088 17.4445 3.69348 17.5967 3.42259 17.8676C3.1517 18.1385 2.99951 18.5059 2.99951 18.889V27.5558C2.99951 27.9389 3.1517 28.3063 3.42259 28.5772C3.69348 28.8481 4.06088 29.0003 4.44398 29.0003H13.1108C13.4939 29.0003 13.8613 28.8481 14.1322 28.5772C14.4031 28.3063 14.5552 27.9389 14.5552 27.5558V18.889C14.5552 18.5059 14.4031 18.1385 14.1322 17.8676C13.8613 17.5967 13.4939 17.4445 13.1108 17.4445ZM11.6663 26.1113H5.88844V20.3335H11.6663V26.1113ZM27.5554 2.99988H18.8886C18.5055 2.99988 18.1381 3.15206 17.8672 3.42295C17.5964 3.69384 17.4442 4.06125 17.4442 4.44434V13.1111C17.4442 13.4942 17.5964 13.8616 17.8672 14.1325C18.1381 14.4034 18.5055 14.5556 18.8886 14.5556H27.5554C27.9385 14.5556 28.3059 14.4034 28.5768 14.1325C28.8477 13.8616 28.9999 13.4942 28.9999 13.1111V4.44434C28.9999 4.06125 28.8477 3.69384 28.5768 3.42295C28.3059 3.15206 27.9385 2.99988 27.5554 2.99988ZM26.111 11.6667H20.3331V5.88881H26.111V11.6667ZM27.5554 21.7779H24.6665V18.889C24.6665 18.5059 24.5143 18.1385 24.2434 17.8676C23.9725 17.5967 23.6051 17.4445 23.222 17.4445C22.8389 17.4445 22.4715 17.5967 22.2006 17.8676C21.9298 18.1385 21.7776 18.5059 21.7776 18.889V21.7779H18.8886C18.5055 21.7779 18.1381 21.9301 17.8672 22.201C17.5964 22.4719 17.4442 22.8393 17.4442 23.2224C17.4442 23.6055 17.5964 23.9729 17.8672 24.2438C18.1381 24.5147 18.5055 24.6669 18.8886 24.6669H21.7776V27.5558C21.7776 27.9389 21.9298 28.3063 22.2006 28.5772C22.4715 28.8481 22.8389 29.0003 23.222 29.0003C23.6051 29.0003 23.9725 28.8481 24.2434 28.5772C24.5143 28.3063 24.6665 27.9389 24.6665 27.5558V24.6669H27.5554C27.9385 24.6669 28.3059 24.5147 28.5768 24.2438C28.8477 23.9729 28.9999 23.6055 28.9999 23.2224C28.9999 22.8393 28.8477 22.4719 28.5768 22.201C28.3059 21.9301 27.9385 21.7779 27.5554 21.7779ZM13.1108 2.99988H4.44398C4.06088 2.99988 3.69348 3.15206 3.42259 3.42295C3.1517 3.69384 2.99951 4.06125 2.99951 4.44434V13.1111C2.99951 13.4942 3.1517 13.8616 3.42259 14.1325C3.69348 14.4034 4.06088 14.5556 4.44398 14.5556H13.1108C13.4939 14.5556 13.8613 14.4034 14.1322 14.1325C14.4031 13.8616 14.5552 13.4942 14.5552 13.1111V4.44434C14.5552 4.06125 14.4031 3.69384 14.1322 3.42295C13.8613 3.15206 13.4939 2.99988 13.1108 2.99988ZM11.6663 11.6667H5.88844V5.88881H11.6663V11.6667Z" fill="#660066"/>
</g>
<defs>
<clipPath id="clip0_1028_9">
<rect width="32" height="32" fill="white"/>
</clipPath>
</defs>
</svg>
