<svg width="41" height="41" viewBox="0 0 41 41" fill="none" xmlns="http://www.w3.org/2000/svg">
<path opacity="0.25" d="M39.5138 20.3935C39.5138 31.1106 30.8859 39.787 20.2569 39.787C9.62794 39.787 1 31.1106 1 20.3935C1 9.67642 9.62794 1 20.2569 1C30.8859 1 39.5138 9.67642 39.5138 20.3935Z" stroke="white" stroke-opacity="0.3" stroke-width="2"/>
<path d="M22.101 15.1715H23.9627C24.134 15.1715 24.273 15.0397 24.273 14.8772V13.111C24.273 12.9485 24.134 12.8167 23.9627 12.8167H22.101C20.2194 12.8167 18.6878 14.269 18.6878 16.0546V18.1151H16.5157C16.3445 18.1151 16.2054 18.247 16.2054 18.4095V20.1756C16.2054 20.3381 16.3445 20.47 16.5157 20.47H18.6878V26.6515C18.6878 26.814 18.8268 26.9459 18.9981 26.9459H20.8598C21.0311 26.9459 21.1701 26.814 21.1701 26.6515V20.47H23.3422C23.4756 20.47 23.5941 20.3888 23.6369 20.2687L24.2575 18.5025C24.2892 18.413 24.273 18.3141 24.2147 18.237C24.1557 18.1604 24.0627 18.1151 23.9627 18.1151H21.1701V16.0546C21.1701 15.5677 21.5878 15.1715 22.101 15.1715Z" fill="white"/>
</svg>
