<svg width="44" height="44" viewBox="0 0 44 44" fill="none" xmlns="http://www.w3.org/2000/svg">
<circle opacity="0.05" cx="21.8133" cy="21.8133" r="20.8133" stroke="white" stroke-width="2"/>
<g clip-path="url(#clip0_434_479)">
<path d="M24.4488 14.542H17.1777C15.1698 14.542 13.5421 16.1697 13.5421 18.1775V25.4487C13.5421 27.4565 15.1698 29.0842 17.1777 29.0842H24.4488C26.4566 29.0842 28.0843 27.4565 28.0843 25.4487V18.1775C28.0843 16.1697 26.4566 14.542 24.4488 14.542Z" stroke="white" stroke-width="2" stroke-linecap="round" stroke-linejoin="round"/>
<path d="M23.7217 21.3551C23.8114 21.9603 23.7081 22.5783 23.4263 23.1213C23.1446 23.6643 22.6988 24.1046 22.1523 24.3797C21.6059 24.6547 20.9866 24.7504 20.3827 24.6532C19.7787 24.5561 19.2207 24.2709 18.7881 23.8383C18.3556 23.4057 18.0704 22.8478 17.9732 22.2438C17.876 21.6398 17.9718 21.0206 18.2468 20.4741C18.5218 19.9277 18.9622 19.4819 19.5052 19.2001C20.0482 18.9184 20.6662 18.815 21.2713 18.9048C21.8886 18.9963 22.4601 19.2839 22.9013 19.7252C23.3425 20.1664 23.6302 20.7379 23.7217 21.3551Z" stroke="white" stroke-width="2" stroke-linecap="round" stroke-linejoin="round"/>
<path d="M24.8124 17.8142H24.8204" stroke="white" stroke-width="2" stroke-linecap="round" stroke-linejoin="round"/>
</g>
<defs>
<clipPath id="clip0_434_479">
<rect width="17.4507" height="17.4507" fill="white" transform="translate(12.0879 13.0879)"/>
</clipPath>
</defs>
</svg>
