<svg width="41" height="41" viewBox="0 0 41 41" fill="none" xmlns="http://www.w3.org/2000/svg">
<path opacity="0.25" d="M39.4307 20.3517C39.4307 31.0456 30.8213 39.7033 20.2153 39.7033C9.60932 39.7033 1 31.0456 1 20.3517C1 9.65768 9.60932 1 20.2153 1C30.8213 1 39.4307 9.65768 39.4307 20.3517Z" stroke="white" stroke-opacity="0.3" stroke-width="2"/>
<path d="M15.5755 16.2435C16.522 16.2435 17.2892 15.4709 17.2892 14.5179C17.2892 13.5648 16.522 12.7922 15.5755 12.7922C14.6291 12.7922 13.8618 13.5648 13.8618 14.5179C13.8618 15.4709 14.6291 16.2435 15.5755 16.2435Z" fill="white"/>
<path d="M17.0034 17.3975H14.1472C13.9895 17.3975 13.8616 17.5263 13.8616 17.685V26.3117C13.8616 26.4704 13.9895 26.5993 14.1472 26.5993H17.0034C17.161 26.5993 17.289 26.4704 17.289 26.3117V17.685C17.289 17.5263 17.161 17.3975 17.0034 17.3975Z" fill="white"/>
<path d="M25.5144 16.9206C24.2937 16.4996 22.7667 16.8694 21.851 17.5325C21.8196 17.4088 21.7076 17.3168 21.5745 17.3168H18.7182C18.5606 17.3168 18.4326 17.4457 18.4326 17.6044V26.2309C18.4326 26.3896 18.5606 26.5184 18.7182 26.5184H21.5745C21.7322 26.5184 21.8601 26.3896 21.8601 26.2309V20.0313C22.3217 19.631 22.9164 19.5034 23.4031 19.7115C23.8749 19.9123 24.1451 20.4022 24.1451 21.055V26.2309C24.1451 26.3896 24.2731 26.5184 24.4308 26.5184H27.287C27.4447 26.5184 27.5727 26.3896 27.5727 26.2309V20.4758C27.5401 18.1128 26.4359 17.238 25.5144 16.9206Z" fill="white"/>
</svg>
