<svg width="46" height="46" viewBox="0 0 46 46" fill="none" xmlns="http://www.w3.org/2000/svg">
<path d="M21.6678 25.2526L26.8379 30.4002C27.0485 30.6091 27.2158 30.8577 27.3299 31.1317C27.444 31.4056 27.5028 31.6994 27.5028 31.9961C27.5028 32.2929 27.444 32.5867 27.3299 32.8606C27.2158 33.1345 27.0485 33.3832 26.8379 33.5921C26.6289 33.8028 26.3803 33.97 26.1064 34.0842C25.8324 34.1983 25.5386 34.257 25.2419 34.257C24.9451 34.257 24.6513 34.1983 24.3774 34.0842C24.1035 33.97 23.8549 33.8028 23.6459 33.5921L14.6544 24.6007C14.4498 24.3869 14.2894 24.1348 14.1824 23.8589C13.9576 23.3116 13.9576 22.6978 14.1824 22.1505C14.2894 21.8746 14.4498 21.6225 14.6544 21.4087L23.6459 12.4172C23.8555 12.2077 24.1043 12.0414 24.3781 11.928C24.652 11.8145 24.9455 11.7562 25.2419 11.7562C25.5383 11.7562 25.8318 11.8145 26.1056 11.928C26.3795 12.0414 26.6283 12.2077 26.8379 12.4172C27.0474 12.6268 27.2137 12.8756 27.3271 13.1495C27.4406 13.4233 27.4989 13.7168 27.4989 14.0132C27.4989 14.3096 27.4406 14.6031 27.3271 14.877C27.2137 15.1508 27.0474 15.3996 26.8379 15.6092L21.6678 20.7568H43.2248C43.821 20.7568 44.3927 20.9937 44.8143 21.4152C45.2358 21.8368 45.4727 22.4085 45.4727 23.0047C45.4727 23.6009 45.2358 24.1726 44.8143 24.5942C44.3927 25.0157 43.821 25.2526 43.2248 25.2526H21.6678ZM22.994 0.526042C27.1951 0.507286 31.3173 1.66619 34.8932 3.87129C38.469 6.0764 41.3553 9.23946 43.2248 13.0017C43.4931 13.5382 43.5372 14.1594 43.3475 14.7285C43.1578 15.2976 42.7498 15.768 42.2133 16.0363C41.6767 16.3046 41.0555 16.3487 40.4864 16.159C39.9173 15.9693 39.4469 15.5613 39.1786 15.0248C37.7576 12.155 35.5959 9.7167 32.9171 7.96195C30.2383 6.2072 27.1395 5.19962 23.9409 5.04333C20.7424 4.88705 17.5601 5.58773 14.723 7.07297C11.8858 8.55821 9.49678 10.7741 7.8027 13.4917C6.10862 16.2093 5.17096 19.33 5.08663 22.5312C5.0023 25.7325 5.77434 28.8982 7.32299 31.7012C8.87164 34.5043 11.1407 36.8429 13.8957 38.4754C16.6507 40.108 19.7917 40.9753 22.994 40.9876C26.3458 41.0021 29.6339 40.0713 32.4807 38.302C35.3275 36.5326 37.6178 33.9965 39.0887 30.9846C39.357 30.448 39.8274 30.04 40.3965 29.8503C40.9656 29.6606 41.5868 29.7048 42.1233 29.9731C42.6599 30.2413 43.0679 30.7118 43.2576 31.2809C43.4473 31.85 43.4032 32.4711 43.1349 33.0077C41.3527 36.5942 38.6447 39.6394 35.291 41.8284C31.9373 44.0174 28.0597 45.2707 24.0592 45.4586C20.0588 45.6465 16.0807 44.7622 12.5366 42.8972C8.9925 41.0322 6.011 38.2542 3.9005 34.8505C1.79 31.4469 0.627155 27.5412 0.532238 23.5374C0.437321 19.5337 1.41378 15.5773 3.36062 12.0774C5.30746 8.5776 8.15397 5.66144 11.6057 3.63058C15.0575 1.59972 18.9891 0.527922 22.994 0.526042Z" fill="#660066"/>
</svg>
