<svg width="44" height="44" viewBox="0 0 44 44" fill="none" xmlns="http://www.w3.org/2000/svg">
<circle opacity="0.05" cx="21.8133" cy="21.8133" r="20.8133" stroke="white" stroke-width="2"/>
<g clip-path="url(#clip0_434_477)">
<path d="M29.8115 15.2693C29.1152 15.7604 28.3443 16.1361 27.5284 16.3818C27.0905 15.8782 26.5085 15.5214 25.8611 15.3594C25.2138 15.1974 24.5323 15.2382 23.9089 15.4761C23.2854 15.7141 22.7501 16.1377 22.3753 16.6898C22.0005 17.2419 21.8043 17.8958 21.8133 18.5631V19.2902C20.5355 19.3233 19.2693 19.0399 18.1276 18.4653C16.9858 17.8906 16.0039 17.0424 15.2693 15.9964C15.2693 15.9964 12.3608 22.5404 18.9048 25.4488C17.4074 26.4653 15.6235 26.975 13.8151 26.903C20.3591 30.5386 28.3573 26.903 28.3573 18.5413C28.3566 18.3387 28.3371 18.1367 28.2991 17.9378C29.0412 17.2059 29.5649 16.2819 29.8115 15.2693Z" fill="white"/>
</g>
<defs>
<clipPath id="clip0_434_477">
<rect width="17.4507" height="17.4507" fill="white" transform="translate(13.088 13.0879)"/>
</clipPath>
</defs>
</svg>
