<svg width="59" height="55" viewBox="0 0 59 55" fill="none" xmlns="http://www.w3.org/2000/svg">
<g filter="url(#filter0_d_1861_1067)">
<path d="M48.0455 0H24.8636C23.0192 0 21.2503 0.732709 19.946 2.03694C18.6418 3.34117 17.9091 5.11008 17.9091 6.95454V23.1818C17.9091 25.0263 18.6418 26.7952 19.946 28.0994C21.2503 29.4037 23.0192 30.1364 24.8636 30.1364H48.0455C49.8899 30.1364 51.6588 29.4037 52.9631 28.0994C54.2673 26.7952 55 25.0263 55 23.1818V6.95454C55 5.11008 54.2673 3.34117 52.9631 2.03694C51.6588 0.732709 49.8899 0 48.0455 0ZM50.3636 23.1818C50.3636 23.7966 50.1194 24.3863 49.6847 24.821C49.2499 25.2558 48.6603 25.5 48.0455 25.5H24.8636C24.2488 25.5 23.6592 25.2558 23.2244 24.821C22.7897 24.3863 22.5455 23.7966 22.5455 23.1818V6.95454C22.5455 6.33972 22.7897 5.75009 23.2244 5.31534C23.6592 4.8806 24.2488 4.63636 24.8636 4.63636H48.0455C48.6603 4.63636 49.2499 4.8806 49.6847 5.31534C50.1194 5.75009 50.3636 6.33972 50.3636 6.95454V23.1818ZM42.25 13.9091C41.3918 13.912 40.5654 14.2343 39.9318 14.8132C39.4333 14.3601 38.814 14.0616 38.149 13.9538C37.4841 13.8461 36.8021 13.9339 36.1861 14.2064C35.5701 14.479 35.0465 14.9246 34.6789 15.4891C34.3114 16.0536 34.1157 16.7127 34.1157 17.3864C34.1157 18.06 34.3114 18.7191 34.6789 19.2836C35.0465 19.8482 35.5701 20.2938 36.1861 20.5663C36.8021 20.8389 37.4841 20.9266 38.149 20.8189C38.814 20.7112 39.4333 20.4126 39.9318 19.9595C40.3504 20.34 40.8556 20.6126 41.4034 20.7537C41.9512 20.8948 42.5252 20.9001 43.0755 20.7691C43.6259 20.6382 44.1359 20.3749 44.5615 20.0022C44.9871 19.6295 45.3153 19.1587 45.5177 18.6304C45.7201 18.1021 45.7905 17.5325 45.7229 16.9708C45.6554 16.4092 45.4518 15.8725 45.1298 15.4074C44.8079 14.9422 44.3773 14.5626 43.8755 14.3015C43.3736 14.0405 42.8157 13.9057 42.25 13.9091ZM38.7727 34.7727C38.1579 34.7727 37.5683 35.017 37.1335 35.4517C36.6988 35.8864 36.4545 36.4761 36.4545 37.0909V39.4091C36.4545 40.0239 36.2103 40.6135 35.7756 41.0483C35.3408 41.483 34.7512 41.7273 34.1364 41.7273H10.9545C10.3397 41.7273 9.75009 41.483 9.31534 41.0483C8.8806 40.6135 8.63636 40.0239 8.63636 39.4091V30.1364H10.9545C11.5694 30.1364 12.159 29.8921 12.5937 29.4574C13.0285 29.0226 13.2727 28.433 13.2727 27.8182C13.2727 27.2034 13.0285 26.6137 12.5937 26.179C12.159 25.7442 11.5694 25.5 10.9545 25.5H8.63636V23.1818C8.63636 22.567 8.8806 21.9774 9.31534 21.5426C9.75009 21.1079 10.3397 20.8636 10.9545 20.8636C11.5694 20.8636 12.159 20.6194 12.5937 20.1847C13.0285 19.7499 13.2727 19.1603 13.2727 18.5455C13.2727 17.9306 13.0285 17.341 12.5937 16.9062C12.159 16.4715 11.5694 16.2273 10.9545 16.2273C9.11009 16.2273 7.34117 16.96 6.03694 18.2642C4.73271 19.5684 4 21.3374 4 23.1818V39.4091C4 41.2535 4.73271 43.0225 6.03694 44.3267C7.34117 45.6309 9.11009 46.3636 10.9545 46.3636H34.1364C35.9808 46.3636 37.7497 45.6309 39.054 44.3267C40.3582 43.0225 41.0909 41.2535 41.0909 39.4091V37.0909C41.0909 36.4761 40.8467 35.8864 40.4119 35.4517C39.9772 35.017 39.3875 34.7727 38.7727 34.7727ZM15.5909 37.0909H17.9091C18.5239 37.0909 19.1135 36.8467 19.5483 36.4119C19.983 35.9772 20.2273 35.3875 20.2273 34.7727C20.2273 34.1579 19.983 33.5683 19.5483 33.1335C19.1135 32.6988 18.5239 32.4545 17.9091 32.4545H15.5909C14.9761 32.4545 14.3865 32.6988 13.9517 33.1335C13.517 33.5683 13.2727 34.1579 13.2727 34.7727C13.2727 35.3875 13.517 35.9772 13.9517 36.4119C14.3865 36.8467 14.9761 37.0909 15.5909 37.0909Z" fill="#660066"/>
</g>
<defs>
<filter id="filter0_d_1861_1067" x="0" y="0" width="59" height="54.3636" filterUnits="userSpaceOnUse" color-interpolation-filters="sRGB">
<feFlood flood-opacity="0" result="BackgroundImageFix"/>
<feColorMatrix in="SourceAlpha" type="matrix" values="0 0 0 0 0 0 0 0 0 0 0 0 0 0 0 0 0 0 127 0" result="hardAlpha"/>
<feOffset dy="4"/>
<feGaussianBlur stdDeviation="2"/>
<feComposite in2="hardAlpha" operator="out"/>
<feColorMatrix type="matrix" values="0 0 0 0 0 0 0 0 0 0 0 0 0 0 0 0 0 0 0.25 0"/>
<feBlend mode="normal" in2="BackgroundImageFix" result="effect1_dropShadow_1861_1067"/>
<feBlend mode="normal" in="SourceGraphic" in2="effect1_dropShadow_1861_1067" result="shape"/>
</filter>
</defs>
</svg>
