<svg width="108" height="49" viewBox="0 0 108 49" fill="none" xmlns="http://www.w3.org/2000/svg">
<g filter="url(#filter0_d_418_459)">
<rect x="5.5" y="4.5" width="97" height="38" rx="17.5" stroke="#FF6600" shape-rendering="crispEdges"/>
</g>
<path d="M36.67 30.42L36.66 32H27.83V17.67H36.66V19.25H29.77V24.01H35.35V25.53H29.77V30.42H36.67ZM45.1233 24.28C44.7899 23.8333 44.4299 23.5233 44.0433 23.35C43.6566 23.17 43.2233 23.08 42.7433 23.08C41.8033 23.08 41.0799 23.4167 40.5733 24.09C40.0666 24.7633 39.8133 25.7233 39.8133 26.97C39.8133 27.63 39.8699 28.1967 39.9833 28.67C40.0966 29.1367 40.2633 29.5233 40.4833 29.83C40.7033 30.13 40.9733 30.35 41.2933 30.49C41.6133 30.63 41.9766 30.7 42.3833 30.7C42.9699 30.7 43.4799 30.5667 43.9133 30.3C44.3533 30.0333 44.7566 29.6567 45.1233 29.17V24.28ZM46.9033 17.27V32H45.8433C45.5899 32 45.4299 31.8767 45.3633 31.63L45.2033 30.4C44.7699 30.92 44.2766 31.34 43.7233 31.66C43.1699 31.98 42.5299 32.14 41.8033 32.14C41.2233 32.14 40.6966 32.03 40.2233 31.81C39.7499 31.5833 39.3466 31.2533 39.0133 30.82C38.6799 30.3867 38.4233 29.8467 38.2433 29.2C38.0633 28.5533 37.9733 27.81 37.9733 26.97C37.9733 26.2233 38.0733 25.53 38.2733 24.89C38.4733 24.2433 38.7599 23.6833 39.1333 23.21C39.5066 22.7367 39.9633 22.3667 40.5033 22.1C41.0499 21.8267 41.6633 21.69 42.3433 21.69C42.9633 21.69 43.4933 21.7967 43.9333 22.01C44.3799 22.2167 44.7766 22.5067 45.1233 22.88V17.27H46.9033ZM51.5947 21.87V32H49.8147V21.87H51.5947ZM51.9747 18.69C51.9747 18.8633 51.938 19.0267 51.8647 19.18C51.798 19.3267 51.7047 19.46 51.5847 19.58C51.4714 19.6933 51.3347 19.7833 51.1747 19.85C51.0214 19.9167 50.858 19.95 50.6847 19.95C50.5114 19.95 50.348 19.9167 50.1947 19.85C50.048 19.7833 49.918 19.6933 49.8047 19.58C49.6914 19.46 49.6014 19.3267 49.5347 19.18C49.468 19.0267 49.4347 18.8633 49.4347 18.69C49.4347 18.5167 49.468 18.3533 49.5347 18.2C49.6014 18.04 49.6914 17.9033 49.8047 17.79C49.918 17.67 50.048 17.5767 50.1947 17.51C50.348 17.4433 50.5114 17.41 50.6847 17.41C50.858 17.41 51.0214 17.4433 51.1747 17.51C51.3347 17.5767 51.4714 17.67 51.5847 17.79C51.7047 17.9033 51.798 18.04 51.8647 18.2C51.938 18.3533 51.9747 18.5167 51.9747 18.69ZM57.6294 32.16C56.8294 32.16 56.2127 31.9367 55.7794 31.49C55.3527 31.0433 55.1394 30.4 55.1394 29.56V23.36H53.9194C53.8127 23.36 53.7227 23.33 53.6494 23.27C53.576 23.2033 53.5394 23.1033 53.5394 22.97V22.26L55.1994 22.05L55.6094 18.92C55.6294 18.82 55.6727 18.74 55.7394 18.68C55.8127 18.6133 55.906 18.58 56.0194 18.58H56.9194V22.07H59.8494V23.36H56.9194V29.44C56.9194 29.8667 57.0227 30.1833 57.2294 30.39C57.436 30.5967 57.7027 30.7 58.0294 30.7C58.216 30.7 58.376 30.6767 58.5094 30.63C58.6494 30.5767 58.7694 30.52 58.8694 30.46C58.9694 30.4 59.0527 30.3467 59.1194 30.3C59.1927 30.2467 59.256 30.22 59.3094 30.22C59.4027 30.22 59.486 30.2767 59.5594 30.39L60.0794 31.24C59.7727 31.5267 59.4027 31.7533 58.9694 31.92C58.536 32.08 58.0894 32.16 57.6294 32.16Z" fill="#FF6600"/>
<path d="M81.8823 18.5974L84.5444 21.4167C84.6566 21.5355 84.6566 21.7292 84.5444 21.848L78.0986 28.6744L75.3597 28.9963C74.9938 29.04 74.6839 28.7119 74.7252 28.3243L75.0292 25.4237L81.475 18.5974C81.5872 18.4786 81.7701 18.4786 81.8823 18.5974ZM86.6635 17.8816L85.2233 16.3563C84.7747 15.8812 84.0457 15.8812 83.5941 16.3563L82.5493 17.4628C82.4372 17.5816 82.4372 17.7753 82.5493 17.8941L85.2115 20.7134C85.3236 20.8322 85.5066 20.8322 85.6187 20.7134L86.6635 19.607C87.1122 19.1287 87.1122 18.3567 86.6635 17.8816ZM81.3333 26.8177V29.9996H71.8889V19.9977H78.6712C78.7656 19.9977 78.8542 19.957 78.922 19.8883L80.1026 18.638C80.3269 18.4005 80.1675 17.9973 79.8517 17.9973H71.4167C70.6345 17.9973 70 18.6693 70 19.4976V30.4997C70 31.328 70.6345 32 71.4167 32H81.8056C82.5877 32 83.2222 31.328 83.2222 30.4997V25.5675C83.2222 25.2331 82.8415 25.0674 82.6172 25.3018L81.4366 26.5521C81.3717 26.624 81.3333 26.7177 81.3333 26.8177Z" fill="#FF6600"/>
<defs>
<filter id="filter0_d_418_459" x="0.9" y="0.9" width="106.2" height="47.2" filterUnits="userSpaceOnUse" color-interpolation-filters="sRGB">
<feFlood flood-opacity="0" result="BackgroundImageFix"/>
<feColorMatrix in="SourceAlpha" type="matrix" values="0 0 0 0 0 0 0 0 0 0 0 0 0 0 0 0 0 0 127 0" result="hardAlpha"/>
<feMorphology radius="1" operator="dilate" in="SourceAlpha" result="effect1_dropShadow_418_459"/>
<feOffset dy="1"/>
<feGaussianBlur stdDeviation="1.55"/>
<feComposite in2="hardAlpha" operator="out"/>
<feColorMatrix type="matrix" values="0 0 0 0 0 0 0 0 0 0 0 0 0 0 0 0 0 0 0.1 0"/>
<feBlend mode="normal" in2="BackgroundImageFix" result="effect1_dropShadow_418_459"/>
<feBlend mode="normal" in="SourceGraphic" in2="effect1_dropShadow_418_459" result="shape"/>
</filter>
</defs>
</svg>
