<svg width="134" height="134" viewBox="0 0 134 134" fill="none" xmlns="http://www.w3.org/2000/svg">
<path d="M134 67C134 104.003 104.003 134 67 134C29.9969 134 0 104.003 0 67C0 29.9969 29.9969 0 67 0C104.003 0 134 29.9969 134 67Z" fill="#660066"/>
<path d="M104.423 86.7833C99.6106 81.5692 93.7708 77.4082 87.2711 74.5622C80.7715 71.7162 73.753 70.2469 66.6576 70.2469C59.5622 70.2469 52.5436 71.7162 46.044 74.5622C39.5444 77.4082 33.7045 81.5692 28.8921 86.7833C28.1492 87.6048 27.7335 88.6705 27.7241 89.7782V107.747C27.7399 108.928 28.2201 110.056 29.0609 110.885C29.9017 111.715 31.0353 112.18 32.2165 112.18H101.099C102.29 112.18 103.433 111.707 104.275 110.864C105.118 110.022 105.591 108.879 105.591 107.688V89.7183C105.567 88.6313 105.152 87.5894 104.423 86.7833Z" fill="white"/>
<path d="M66.6576 64.2616C78.2358 64.2616 87.6217 54.8757 87.6217 43.2975C87.6217 31.7193 78.2358 22.3333 66.6576 22.3333C55.0794 22.3333 45.6935 31.7193 45.6935 43.2975C45.6935 54.8757 55.0794 64.2616 66.6576 64.2616Z" fill="white"/>
</svg>
