<svg width="14" height="14" viewBox="0 0 14 14" fill="none" xmlns="http://www.w3.org/2000/svg">
<circle cx="6.94517" cy="7.03994" r="6.56724" fill="#FF6600"/>
<path d="M8.03222 7.95275H8.83389C8.80824 8.25845 8.72272 8.53101 8.57736 8.77044C8.43199 9.00774 8.22783 9.19479 7.96488 9.33161C7.70194 9.46843 7.38234 9.53684 7.00609 9.53684C6.71749 9.53684 6.45775 9.48553 6.22688 9.38292C5.996 9.27816 5.79825 9.13066 5.63364 8.9404C5.46903 8.748 5.34291 8.51605 5.25526 8.24455C5.16975 7.97305 5.12699 7.66949 5.12699 7.33386V6.94586C5.12699 6.61022 5.17082 6.30666 5.25846 6.03516C5.34825 5.76367 5.47652 5.53172 5.64326 5.33932C5.81001 5.14478 6.00989 4.99621 6.24291 4.89359C6.47806 4.79098 6.74208 4.73967 7.03495 4.73967C7.40693 4.73967 7.72118 4.80808 7.97771 4.9449C8.23424 5.08172 8.43306 5.27091 8.57415 5.51248C8.71738 5.75405 8.80503 6.03089 8.8371 6.343H8.03543C8.01405 6.14205 7.96702 5.96996 7.89434 5.82673C7.82379 5.6835 7.71904 5.57447 7.58009 5.49965C7.44113 5.42269 7.25942 5.38421 7.03495 5.38421C6.8511 5.38421 6.69077 5.41842 6.55395 5.48683C6.41714 5.55523 6.30277 5.65571 6.21084 5.78825C6.11892 5.92079 6.04944 6.08433 6.00241 6.27887C5.95752 6.47127 5.93507 6.69146 5.93507 6.93944V7.33386C5.93507 7.56902 5.95538 7.78279 5.996 7.97519C6.03875 8.16545 6.10288 8.32899 6.1884 8.46581C6.27604 8.60263 6.38721 8.70845 6.52189 8.78327C6.65657 8.85809 6.81797 8.8955 7.00609 8.8955C7.23483 8.8955 7.41975 8.85916 7.56085 8.78648C7.70408 8.71379 7.81203 8.60797 7.88472 8.46902C7.95954 8.32792 8.00871 8.15583 8.03222 7.95275Z" fill="white"/>
</svg>
