<svg width="32" height="32" viewBox="0 0 32 32" fill="none" xmlns="http://www.w3.org/2000/svg">
<g clip-path="url(#clip0_1028_14)">
<path d="M24.2528 7H8.75055C7.47283 6.99979 6.21488 7.3665 5.0887 8.06749C3.96252 8.76847 3.00306 9.78199 2.29573 11.0178C1.58841 12.2536 1.15517 13.6733 1.03459 15.1506C0.914005 16.6279 1.10982 18.1169 1.6046 19.4851C2.09938 20.8532 2.87776 22.0581 3.87047 22.9923C4.86317 23.9266 6.03938 24.5613 7.29438 24.8399C8.54939 25.1186 9.84424 25.0325 11.0637 24.5893C12.2831 24.1462 13.3892 23.3597 14.2837 22.3H18.7163C19.6107 23.3596 20.7167 24.146 21.9359 24.5892C23.1552 25.0323 24.4499 25.1185 25.7048 24.8401C26.9597 24.5617 28.1358 23.9272 29.1285 22.9933C30.1213 22.0593 30.8998 20.8548 31.3947 19.4869C31.8897 18.119 32.0858 16.6303 31.9656 15.1531C31.8454 13.6759 31.4126 12.2562 30.7057 11.0202C29.9988 9.78431 29.0397 8.77052 27.9139 8.06911C26.7881 7.36771 25.5304 7.00044 24.2528 7ZM13.0127 16.675C13.0127 16.854 12.9515 17.0257 12.8425 17.1523C12.7335 17.2789 12.5857 17.35 12.4315 17.35H9.91297V20.275C9.91297 20.454 9.85174 20.6257 9.74274 20.7523C9.63374 20.8789 9.48591 20.95 9.33176 20.95H8.16935C8.0152 20.95 7.86737 20.8789 7.75837 20.7523C7.64937 20.6257 7.58814 20.454 7.58814 20.275V17.35H5.06957C4.91542 17.35 4.76759 17.2789 4.65859 17.1523C4.54959 17.0257 4.48836 16.854 4.48836 16.675V15.325C4.48836 15.146 4.54959 14.9743 4.65859 14.8477C4.76759 14.7211 4.91542 14.65 5.06957 14.65H7.58814V11.725C7.58814 11.546 7.64937 11.3743 7.75837 11.2477C7.86737 11.1211 8.0152 11.05 8.16935 11.05H9.33176C9.48591 11.05 9.63374 11.1211 9.74274 11.2477C9.85174 11.3743 9.91297 11.546 9.91297 11.725V14.65H12.4315C12.5857 14.65 12.7335 14.7211 12.8425 14.8477C12.9515 14.9743 13.0127 15.146 13.0127 15.325V16.675ZM23.4745 20.95C23.0913 20.95 22.7168 20.818 22.3982 20.5708C22.0796 20.3236 21.8312 19.9722 21.6846 19.561C21.538 19.1499 21.4996 18.6975 21.5744 18.261C21.6491 17.8246 21.8336 17.4237 22.1046 17.109C22.3755 16.7943 22.7207 16.58 23.0965 16.4932C23.4724 16.4064 23.8619 16.451 24.2159 16.6213C24.5699 16.7916 24.8725 17.08 25.0854 17.45C25.2982 17.82 25.4119 18.255 25.4119 18.7C25.4119 19.2967 25.2077 19.869 24.8444 20.291C24.4811 20.7129 23.9883 20.95 23.4745 20.95ZM26.5743 15.55C26.1911 15.55 25.8165 15.418 25.4979 15.1708C25.1793 14.9236 24.931 14.5722 24.7844 14.161C24.6378 13.7499 24.5994 13.2975 24.6741 12.861C24.7489 12.4246 24.9334 12.0237 25.2044 11.709C25.4753 11.3943 25.8205 11.18 26.1963 11.0932C26.5721 11.0064 26.9617 11.051 27.3157 11.2213C27.6697 11.3916 27.9723 11.68 28.1851 12.05C28.398 12.42 28.5116 12.855 28.5116 13.3C28.5116 13.8967 28.3075 14.469 27.9442 14.891C27.5809 15.3129 27.0881 15.55 26.5743 15.55Z" fill="#660066"/>
</g>
<defs>
<clipPath id="clip0_1028_14">
<rect width="32" height="32" fill="white"/>
</clipPath>
</defs>
</svg>
