<svg width="32" height="32" viewBox="0 0 32 32" fill="none" xmlns="http://www.w3.org/2000/svg">
<g clip-path="url(#clip0_1028_19)">
<path d="M29.595 21.9153C27.9263 20.0502 25.9014 18.5617 23.6477 17.5436C21.394 16.5256 18.9603 16 16.5 16C14.0397 16 11.606 16.5256 9.35233 17.5436C7.09861 18.5617 5.07365 20.0502 3.405 21.9153C3.14737 22.2092 3.00326 22.5904 3 22.9866V29.4145C3.00546 29.8369 3.17198 30.2402 3.46352 30.5369C3.75505 30.8337 4.14814 31 4.55769 31H28.4423C28.8554 31 29.2516 30.8307 29.5438 30.5293C29.8359 30.228 30 29.8192 30 29.393V22.9652C29.9917 22.5764 29.8479 22.2037 29.595 21.9153Z" fill="#660066"/>
<path d="M16.5 15C20.6421 15 24 11.6421 24 7.5C24 3.35786 20.6421 0 16.5 0C12.3579 0 9 3.35786 9 7.5C9 11.6421 12.3579 15 16.5 15Z" fill="#660066"/>
</g>
<defs>
<clipPath id="clip0_1028_19">
<rect width="32" height="32" fill="white"/>
</clipPath>
</defs>
</svg>
