<svg width="62" height="48" viewBox="0 0 62 48" fill="none" xmlns="http://www.w3.org/2000/svg">
<g filter="url(#filter0_d_1861_1078)">
<path d="M55.3 0H6.7C5.20909 0 4 1.24952 4 2.79027V36.2736C4 37.8143 5.20909 39.0638 6.7 39.0638H55.3C56.7909 39.0638 58 37.8143 58 36.2736V2.79027C58 1.24952 56.7909 0 55.3 0ZM18.85 25.7996V27.2052C18.85 27.5906 18.5479 27.9027 18.175 27.9027H16.825C16.4521 27.9027 16.15 27.5906 16.15 27.2052V25.7847C15.1974 25.7342 14.271 25.3906 13.5032 24.7951C13.1741 24.5396 13.1572 24.0304 13.4551 23.7365L14.4465 22.759C14.6802 22.5288 15.0278 22.5184 15.3012 22.6954C15.6277 22.9064 15.9981 23.0198 16.3829 23.0198H18.7547C19.3031 23.0198 19.7503 22.5036 19.7503 21.8696C19.7503 21.3508 19.4457 20.8939 19.0103 20.7596L15.2134 19.5825C13.6449 19.0959 12.5489 17.5404 12.5489 15.7991C12.5489 13.661 14.1562 11.9241 16.1492 11.8691V10.4635C16.1492 10.0781 16.4512 9.76596 16.8242 9.76596H18.1742C18.5471 9.76596 18.8492 10.0781 18.8492 10.4635V11.8839C19.8018 11.9345 20.7282 12.2772 21.496 12.8736C21.8251 13.1291 21.8419 13.6383 21.5441 13.9322L20.5527 14.9097C20.319 15.1399 19.9713 15.1503 19.698 14.9733C19.3714 14.7614 19.001 14.6489 18.6163 14.6489H16.2445C15.6961 14.6489 15.2489 15.1651 15.2489 15.7991C15.2489 16.3179 15.5535 16.7748 15.9888 16.9091L19.7857 18.0862C21.3542 18.5728 22.4503 20.1283 22.4503 21.8696C22.4503 24.0086 20.8429 25.7446 18.85 25.7996ZM39.1 24.4149C39.1 24.8003 38.7979 25.1125 38.425 25.1125H28.975C28.6021 25.1125 28.3 24.8003 28.3 24.4149V23.0198C28.3 22.6344 28.6021 22.3222 28.975 22.3222H38.425C38.7979 22.3222 39.1 22.6344 39.1 23.0198V24.4149ZM52.6 24.4149C52.6 24.8003 52.2979 25.1125 51.925 25.1125H45.175C44.8021 25.1125 44.5 24.8003 44.5 24.4149V23.0198C44.5 22.6344 44.8021 22.3222 45.175 22.3222H51.925C52.2979 22.3222 52.6 22.6344 52.6 23.0198V24.4149ZM52.6 16.0441C52.6 16.4295 52.2979 16.7416 51.925 16.7416H28.975C28.6021 16.7416 28.3 16.4295 28.3 16.0441V14.6489C28.3 14.2635 28.6021 13.9514 28.975 13.9514H51.925C52.2979 13.9514 52.6 14.2635 52.6 14.6489V16.0441Z" fill="#660066"/>
</g>
<defs>
<filter id="filter0_d_1861_1078" x="0" y="0" width="62" height="47.0638" filterUnits="userSpaceOnUse" color-interpolation-filters="sRGB">
<feFlood flood-opacity="0" result="BackgroundImageFix"/>
<feColorMatrix in="SourceAlpha" type="matrix" values="0 0 0 0 0 0 0 0 0 0 0 0 0 0 0 0 0 0 127 0" result="hardAlpha"/>
<feOffset dy="4"/>
<feGaussianBlur stdDeviation="2"/>
<feComposite in2="hardAlpha" operator="out"/>
<feColorMatrix type="matrix" values="0 0 0 0 0 0 0 0 0 0 0 0 0 0 0 0 0 0 0.25 0"/>
<feBlend mode="normal" in2="BackgroundImageFix" result="effect1_dropShadow_1861_1078"/>
<feBlend mode="normal" in="SourceGraphic" in2="effect1_dropShadow_1861_1078" result="shape"/>
</filter>
</defs>
</svg>
